<svg width="74" height="74" viewBox="0 0 74 74" fill="none" xmlns="http://www.w3.org/2000/svg">
<rect x="0.5" y="0.5" width="73" height="73" rx="36.5" fill="#333435"/>
<rect x="0.5" y="0.5" width="73" height="73" rx="36.5" stroke="#696969"/>
<path d="M51.4584 40.5937H45.3859C43.1563 40.5923 41.349 38.7864 41.3477 36.5567C41.3477 34.3271 43.1563 32.5212 45.3859 32.5198H51.4584" stroke="#73DD62" stroke-width="2.5" stroke-linecap="round" stroke-linejoin="round"/>
<path d="M46.073 36.4643H45.6055" stroke="#73DD62" stroke-width="2.5" stroke-linecap="round" stroke-linejoin="round"/>
<path fill-rule="evenodd" clip-rule="evenodd" d="M30.6215 23.5H43.5866C47.9339 23.5 51.4581 27.0243 51.4581 31.3715V42.137C51.4581 46.4843 47.9339 50.0085 43.5866 50.0085H30.6215C26.2743 50.0085 22.75 46.4843 22.75 42.137V31.3715C22.75 27.0243 26.2743 23.5 30.6215 23.5Z" stroke="#73DD62" stroke-width="2.5" stroke-linecap="round" stroke-linejoin="round"/>
<path d="M29.5537 30.3073H37.6521" stroke="#73DD62" stroke-width="2.5" stroke-linecap="round" stroke-linejoin="round"/>
</svg>
