<svg width="32" height="38" viewBox="0 0 32 38" fill="none" xmlns="http://www.w3.org/2000/svg">
<path fill-rule="evenodd" clip-rule="evenodd" d="M20.4291 8.20601H11.6521C10.2371 8.20601 9.09033 7.05926 9.09033 5.64421V4.56179C9.09033 3.14674 10.2371 2 11.6521 2H20.4291C21.8442 2 22.9909 3.14674 22.9909 4.56179V5.64421C22.9909 7.05926 21.8442 8.20601 20.4291 8.20601Z" stroke="#41CA2B" stroke-width="2.5" stroke-linecap="round" stroke-linejoin="round"/>
<path d="M22.9924 5.01038C26.9086 5.01038 30.0841 8.18596 30.0841 12.1022V28.9082C30.0841 32.8243 26.9086 36 22.9924 36H9.09179C5.17559 36 2 32.8243 2 28.9082V12.1022C2 8.18596 5.17559 5.01038 9.09179 5.01038" stroke="#41CA2B" stroke-width="2.5" stroke-linecap="round" stroke-linejoin="round"/>
<path d="M10.4517 21.5327L14.1198 25.2006L21.6268 17.6936" stroke="#41CA2B" stroke-width="2.5" stroke-linecap="round" stroke-linejoin="round"/>
</svg>
