<svg width="94" height="94" viewBox="0 0 94 94" fill="none" xmlns="http://www.w3.org/2000/svg">
<rect width="94" height="94" rx="47" fill="white"/>
<path d="M47.04 27C58.4 27 67 36.314 67 46.97C67 59.3285 56.92 67 47 67C43.72 67 40.08 66.1187 37.16 64.3961C36.14 63.7752 35.28 63.3145 34.18 63.675L30.14 64.8768C29.12 65.1973 28.2 64.3961 28.5 63.3145L29.84 58.8277C30.06 58.2068 30.02 57.5458 29.7 57.025C27.98 53.8603 27 50.3951 27 47.03C27 36.4942 35.42 27 47.04 27ZM56.18 44.4862C54.76 44.4862 53.62 45.6279 53.62 47.0501C53.62 48.4522 54.76 49.6139 56.18 49.6139C57.6 49.6139 58.74 48.4522 58.74 47.0501C58.74 45.6279 57.6 44.4862 56.18 44.4862ZM46.96 44.4862C45.56 44.4662 44.4 45.6279 44.4 47.03C44.4 48.4522 45.54 49.5939 46.96 49.6139C48.38 49.6139 49.52 48.4522 49.52 47.0501C49.52 45.6279 48.38 44.4862 46.96 44.4862ZM37.74 44.4862C36.32 44.4862 35.18 45.6279 35.18 47.0501C35.18 48.4522 36.34 49.6139 37.74 49.6139C39.16 49.5939 40.3 48.4522 40.3 47.0501C40.3 45.6279 39.16 44.4862 37.74 44.4862Z" fill="#1B1C1D"/>
</svg>
