<svg width="94" height="94" viewBox="0 0 94 94" fill="none" xmlns="http://www.w3.org/2000/svg">
<rect width="94" height="94" rx="47" fill="white"/>
<path d="M48.1415 27.1991L61.4164 31.653C62.9023 32.1492 63.907 33.5142 63.9151 35.044L63.9997 48.3253C64.0258 52.3516 62.558 56.2564 59.87 59.3159C58.6337 60.7201 57.0491 61.9263 55.0256 63.0049L47.8898 66.8195C47.6663 66.9371 47.4207 66.9979 47.173 67C46.9254 67.0019 46.6777 66.943 46.4562 66.8273L39.254 63.101C37.2083 62.04 35.6096 60.8515 34.3613 59.4669C31.629 56.4388 30.1108 52.5517 30.0847 48.5194L30 35.2479C29.992 33.7162 30.9786 32.3414 32.4565 31.8256L45.681 27.2129C46.4663 26.9344 47.3422 26.9285 48.1415 27.1991ZM54.4896 41.4373C53.8956 40.8666 52.9392 40.8705 52.3533 41.4491L45.6162 48.0897L42.8578 45.4382C42.2638 44.8675 41.3094 44.8734 40.7215 45.4519C40.1355 46.0305 40.1416 46.9601 40.7355 47.5308L44.5672 51.2179C44.8652 51.5042 45.2518 51.6454 45.6384 51.6416C46.025 51.6395 46.4095 51.4944 46.7035 51.2041L54.5017 43.5162C55.0876 42.9376 55.0816 42.008 54.4896 41.4373Z" fill="#1B1C1D"/>
</svg>
