<svg width="141" height="40" viewBox="0 0 141 40" fill="none" xmlns="http://www.w3.org/2000/svg">
<path d="M66.539 24.1381V38.3324H71.1508V23.2157C71.1508 21.3026 70.7409 19.6116 69.921 18.1426C69.1011 16.6737 67.9738 15.5293 66.539 14.7094C65.1383 13.8895 63.5156 13.4795 61.6709 13.4795C59.8261 13.4795 58.1693 13.9066 56.7003 14.7606C55.5938 15.3782 54.6714 16.1702 53.9332 17.1367V1.74487H49.3213V38.3324H53.9332V24.1381C53.9332 22.9082 54.2065 21.8151 54.7531 20.8585C55.2996 19.902 56.0512 19.1504 57.0077 18.6038C57.9643 18.0572 59.0575 17.7839 60.2873 17.7839C62.1321 17.7839 63.6352 18.3818 64.7967 19.5775C65.9582 20.7731 66.539 22.2933 66.539 24.1381Z" fill="#777777"/>
<path d="M79.2396 37.5125C80.8452 38.4007 82.6558 38.8448 84.6714 38.8448C86.7211 38.8448 88.5146 38.4007 90.0519 37.5125C91.6234 36.5901 92.8532 35.3261 93.7414 33.7205C94.6296 32.1149 95.0737 30.2531 95.0737 28.135V13.992H90.4618V27.9301C90.4618 29.9456 89.9494 31.5342 88.9246 32.6957C87.8997 33.823 86.482 34.3867 84.6714 34.3867C83.4757 34.3867 82.4338 34.1305 81.5456 33.618C80.6573 33.1056 79.9741 32.3711 79.4958 31.4146C79.0517 30.4239 78.8297 29.2624 78.8297 27.9301V13.992H74.2178V28.135C74.2178 30.2531 74.6619 32.1149 75.5501 33.7205C76.4383 35.3261 77.6682 36.5901 79.2396 37.5125Z" fill="#777777"/>
<path fill-rule="evenodd" clip-rule="evenodd" d="M109.966 38.8448C107.541 38.8448 105.354 38.2982 103.407 37.2051C101.46 36.0777 99.9226 34.5575 98.7952 32.6444C97.6679 30.7314 97.1042 28.5621 97.1042 26.1366C97.1042 23.7452 97.6508 21.593 98.744 19.6799C99.8714 17.7669 101.374 16.2637 103.253 15.1706C105.166 14.0432 107.302 13.4795 109.659 13.4795C111.913 13.4795 113.895 13.992 115.603 15.0168C117.345 16.0417 118.695 17.4594 119.651 19.27C120.642 21.0806 121.137 23.1303 121.137 25.4192C121.137 25.7608 121.12 26.1366 121.086 26.5465C121.052 26.9223 120.983 27.3664 120.881 27.8788H101.819C101.981 28.8267 102.272 29.6978 102.69 30.4922C103.373 31.7562 104.347 32.7469 105.611 33.4643C106.875 34.1476 108.326 34.4892 109.966 34.4892C111.333 34.4892 112.58 34.25 113.707 33.7718C114.868 33.2935 115.859 32.5761 116.679 31.6196L119.651 34.6429C118.49 36.0094 117.055 37.0513 115.347 37.7687C113.673 38.4861 111.879 38.8448 109.966 38.8448ZM102.638 21.6272C102.256 22.3527 101.986 23.1555 101.829 24.0356H116.642C116.516 23.0282 116.255 22.14 115.859 21.371C115.278 20.2095 114.459 19.3212 113.4 18.7063C112.341 18.0572 111.059 17.7327 109.556 17.7327C107.985 17.7327 106.601 18.0743 105.406 18.7576C104.21 19.4408 103.288 20.3973 102.638 21.6272Z" fill="#777777"/>
<path d="M124.116 36.7951C125.141 37.4442 126.251 37.9566 127.447 38.3324C128.677 38.674 129.975 38.8448 131.341 38.8448C134.074 38.8448 136.244 38.1787 137.849 36.8464C139.489 35.514 140.309 33.7034 140.309 31.4146C140.309 29.9115 139.984 28.6987 139.335 27.7763C138.72 26.854 137.918 26.1195 136.927 25.5729C135.936 25.0263 134.894 24.5993 133.801 24.2918C132.708 23.9502 131.649 23.6257 130.624 23.3182C129.633 23.0107 128.83 22.635 128.216 22.1908C127.601 21.7467 127.293 21.1147 127.293 20.2949C127.293 19.475 127.635 18.843 128.318 18.3989C129.035 17.9206 130.06 17.6815 131.393 17.6815C132.657 17.6815 133.784 17.9206 134.775 18.3989C135.8 18.8771 136.654 19.5604 137.337 20.4486L140.309 17.4765C139.352 16.1442 138.123 15.1535 136.619 14.5044C135.15 13.8212 133.459 13.4795 131.546 13.4795C129.736 13.4795 128.181 13.7699 126.883 14.3507C125.619 14.9314 124.629 15.7684 123.911 16.8616C123.194 17.9206 122.835 19.1846 122.835 20.6536C122.835 22.1225 123.143 23.3011 123.757 24.1893C124.407 25.0775 125.226 25.7779 126.217 26.2903C127.208 26.8027 128.25 27.2297 129.343 27.5714C130.47 27.8788 131.529 28.2034 132.52 28.545C133.511 28.8524 134.313 29.2624 134.928 29.7748C135.577 30.2531 135.902 30.9363 135.902 31.8245C135.902 32.7128 135.509 33.4131 134.723 33.9255C133.938 34.4038 132.827 34.6429 131.393 34.6429C129.958 34.6429 128.66 34.3867 127.498 33.8743C126.337 33.3277 125.312 32.5078 124.424 31.4146L121.451 34.3867C122.203 35.3091 123.091 36.1119 124.116 36.7951Z" fill="#777777"/>
<path d="M135.991 5.81944V6.72757H134.898V9.49049H133.86V6.72757H132.767V5.81944H135.991Z" fill="#777777"/>
<path d="M140.252 5.7644V9.507H139.214V7.69074L138.454 8.54384H138.143L137.383 7.69074V9.507H136.345V5.7644H136.711L138.298 7.36051L139.886 5.7644H140.252Z" fill="#777777"/>
<path d="M5.09374 11.7925C6.52991 16.3974 11.4272 18.9662 16.032 17.53C20.6369 16.0938 31.5436 8.59615 30.1074 3.99127C28.6712 -0.613623 15.4361 -0.581963 10.8312 0.854207C6.22633 2.29038 3.65757 7.18762 5.09374 11.7925Z" fill="#777777"/>
<path d="M2.31131 37.0429C5.01414 39.7457 9.39582 39.7457 12.0987 37.0429C14.8015 34.34 19.6949 25.0644 16.9926 22.3616C14.2897 19.659 5.01414 24.5527 2.31131 27.2553C-0.391529 29.9581 -0.391529 34.34 2.31131 37.0429Z" fill="#777777"/>
<path d="M28.1728 39.7003C32.8321 40.9487 37.6213 38.1838 38.8699 33.5244C40.118 28.8651 39.6139 15.6397 34.9545 14.3911C30.2951 13.1427 23.2457 24.3441 21.9971 29.0034C20.7485 33.6625 23.5134 38.4517 28.1728 39.7003Z" fill="#777777"/>
</svg>
