<svg width="177" height="40" viewBox="0 0 177 40" fill="none" xmlns="http://www.w3.org/2000/svg">
<path d="M77.0974 5.97292C77.71 6.61615 78.6442 6.93777 79.9001 6.93777C81.1559 6.93777 82.0748 6.61615 82.6568 5.97292C83.2388 5.29905 83.5298 4.47203 83.5298 3.49186C83.5298 2.45043 83.2388 1.60809 82.6568 0.964856C82.0748 0.321618 81.1559 0 79.9001 0C78.6442 0 77.71 0.321618 77.0974 0.964856C76.5154 1.60809 76.2244 2.45043 76.2244 3.49186C76.2244 4.47203 76.5154 5.29905 77.0974 5.97292Z" fill="#777777"/>
<path d="M47.9307 9.92423L55.7414 34.8726H65.9872L72.7412 9.92423H66.5845L61.5026 29.6349H60.4177L54.5009 9.92423H47.9307Z" fill="#777777"/>
<path d="M98.0575 35.6537C94.6269 35.6537 91.9314 34.9339 89.9711 33.4943C88.0414 32.024 87.0306 30.0024 86.9387 27.4295H92.6819C92.7738 28.2871 93.2485 29.0682 94.1062 29.7727C94.9638 30.4772 96.3116 30.8294 98.1494 30.8294C99.6809 30.8294 100.891 30.5538 101.779 30.0024C102.698 29.4511 103.157 28.7006 103.157 27.7511C103.157 26.9241 102.805 26.2655 102.101 25.7754C101.427 25.2853 100.263 24.9637 98.6089 24.8106L96.4035 24.5808C93.6161 24.2745 91.472 23.4782 89.9711 22.1917C88.4702 20.9052 87.7198 19.1899 87.7198 17.0458C87.7198 15.3305 88.1486 13.8909 89.0062 12.7269C89.8639 11.563 91.0432 10.69 92.544 10.108C94.0756 9.49541 95.8215 9.1891 97.7818 9.1891C100.845 9.1891 103.326 9.86297 105.225 11.2107C107.124 12.5584 108.12 14.5341 108.211 17.1377H102.468C102.407 16.28 101.978 15.5449 101.182 14.9323C100.385 14.3197 99.2368 14.0134 97.7359 14.0134C96.3882 14.0134 95.3467 14.2737 94.6116 14.7945C93.8765 15.3152 93.5089 15.989 93.5089 16.8161C93.5089 17.6124 93.7999 18.2251 94.3819 18.6539C94.9945 19.0827 95.9746 19.3737 97.3224 19.5268L99.5278 19.7566C102.468 20.0629 104.766 20.8746 106.42 22.1917C108.104 23.5088 108.947 25.2853 108.947 27.5214C108.947 29.1754 108.487 30.615 107.568 31.8402C106.68 33.0348 105.424 33.969 103.801 34.6429C102.177 35.3168 100.263 35.6537 98.0575 35.6537Z" fill="#777777"/>
<path d="M112.66 5.97292C113.273 6.61615 114.207 6.93777 115.463 6.93777C116.719 6.93777 117.638 6.61615 118.22 5.97292C118.802 5.29905 119.093 4.47203 119.093 3.49186C119.093 2.45043 118.802 1.60809 118.22 0.964856C117.638 0.321618 116.719 0 115.463 0C114.207 0 113.273 0.321618 112.66 0.964856C112.078 1.60809 111.787 2.45043 111.787 3.49186C111.787 4.47203 112.078 5.29905 112.66 5.97292Z" fill="#777777"/>
<path fill-rule="evenodd" clip-rule="evenodd" d="M136.561 35.7456C134.356 35.7456 132.411 35.3934 130.726 34.6889C129.041 33.9844 127.617 33.0348 126.453 31.8402C125.289 30.615 124.401 29.2367 123.788 27.7051C123.206 26.1736 122.915 24.5808 122.915 22.9268V21.962C122.915 20.2467 123.221 18.6232 123.834 17.0917C124.477 15.5296 125.381 14.1512 126.545 12.9566C127.739 11.7314 129.179 10.7819 130.864 10.108C132.548 9.40351 134.447 9.05127 136.561 9.05127C138.674 9.05127 140.574 9.40351 142.258 10.108C143.943 10.7819 145.367 11.7314 146.531 12.9566C147.726 14.1512 148.629 15.5296 149.242 17.0917C149.854 18.6232 150.161 20.2467 150.161 21.962V22.9268C150.161 24.5808 149.854 26.1736 149.242 27.7051C148.66 29.2367 147.787 30.615 146.623 31.8402C145.459 33.0348 144.035 33.9844 142.35 34.6889C140.665 35.3934 138.736 35.7456 136.561 35.7456ZM136.561 30.2781C138.123 30.2781 139.44 29.9412 140.512 29.2673C141.584 28.5628 142.396 27.6286 142.947 26.4646C143.499 25.27 143.774 23.9223 143.774 22.4214C143.774 20.8899 143.483 19.5422 142.901 18.3782C142.35 17.1836 141.523 16.2494 140.42 15.5755C139.348 14.871 138.062 14.5188 136.561 14.5188C135.06 14.5188 133.758 14.871 132.656 15.5755C131.584 16.2494 130.756 17.1836 130.175 18.3782C129.593 19.5422 129.302 20.8899 129.302 22.4214C129.302 23.9223 129.577 25.27 130.129 26.4646C130.711 27.6286 131.538 28.5628 132.61 29.2673C133.682 29.9412 134.999 30.2781 136.561 30.2781Z" fill="#777777"/>
<path d="M159.061 14.2891C158.841 14.8379 158.658 15.4323 158.51 16.0722V9.92423H153.456V34.8726H159.842V20.216C159.842 18.5926 160.317 17.3061 161.266 16.3566C162.247 15.3764 163.518 14.8863 165.08 14.8863C166.611 14.8863 167.806 15.3611 168.664 16.3107C169.552 17.2602 169.996 18.5007 169.996 20.0322V34.8726H176.382V20.5836C176.382 16.7854 175.617 13.9368 174.085 12.0377C172.554 10.108 170.302 9.14316 167.331 9.14316H167.055C165.064 9.14316 163.395 9.57198 162.047 10.4296C160.73 11.2873 159.735 12.5738 159.061 14.2891Z" fill="#777777"/>
<path d="M77.5568 14.7026V34.8726H83.9433V9.92423H74.065V14.7026H77.5568Z" fill="#777777"/>
<path d="M113.12 14.7026V34.8726H119.506V9.92423H109.628V14.7026H113.12Z" fill="#777777"/>
<mask id="path-2-inside-1_1311_2588" fill="white">
<path fill-rule="evenodd" clip-rule="evenodd" d="M20.3096 40C31.3553 40 40.3096 31.0457 40.3096 20C40.3096 8.9543 31.3553 0 20.3096 0C9.26388 0 0.30957 8.9543 0.30957 20C0.30957 31.0457 9.26388 40 20.3096 40ZM35.0281 17.9245C33.1632 20.1053 30.5364 21.4634 27.6261 21.4634C21.9685 21.4634 17.3822 16.331 17.3822 9.99997C17.3822 8.40717 17.6725 6.89024 18.1971 5.51182C11.1077 6.58856 5.67516 12.7098 5.67516 20.0999C5.67516 22.2561 6.13763 24.3043 6.96879 26.1507C7.81194 25.3663 8.99691 24.8782 10.3093 24.8782C12.8687 24.8782 14.9434 26.7345 14.9434 29.0245C14.9434 30.5622 14.0079 31.9044 12.6184 32.6203C14.8841 34.0371 17.562 34.856 20.4313 34.856C28.5808 34.856 35.1874 28.2495 35.1874 20.0999C35.1874 19.3608 35.133 18.6344 35.0281 17.9245Z"/>
</mask>
<path fill-rule="evenodd" clip-rule="evenodd" d="M20.3096 40C31.3553 40 40.3096 31.0457 40.3096 20C40.3096 8.9543 31.3553 0 20.3096 0C9.26388 0 0.30957 8.9543 0.30957 20C0.30957 31.0457 9.26388 40 20.3096 40ZM35.0281 17.9245C33.1632 20.1053 30.5364 21.4634 27.6261 21.4634C21.9685 21.4634 17.3822 16.331 17.3822 9.99997C17.3822 8.40717 17.6725 6.89024 18.1971 5.51182C11.1077 6.58856 5.67516 12.7098 5.67516 20.0999C5.67516 22.2561 6.13763 24.3043 6.96879 26.1507C7.81194 25.3663 8.99691 24.8782 10.3093 24.8782C12.8687 24.8782 14.9434 26.7345 14.9434 29.0245C14.9434 30.5622 14.0079 31.9044 12.6184 32.6203C14.8841 34.0371 17.562 34.856 20.4313 34.856C28.5808 34.856 35.1874 28.2495 35.1874 20.0999C35.1874 19.3608 35.133 18.6344 35.0281 17.9245Z" fill="#777777"/>
<path d="M35.0281 17.9245L37.673 17.5337L36.8143 11.7222L32.9962 16.1869L35.0281 17.9245ZM18.1971 5.51182L20.6958 6.4628L22.3256 2.18058L17.7956 2.86859L18.1971 5.51182ZM6.96879 26.1507L4.53087 27.2481L6.06088 30.647L8.78986 28.1081L6.96879 26.1507ZM12.6184 32.6203L11.3939 30.2436L7.21673 32.3957L11.2009 34.8871L12.6184 32.6203ZM37.636 20C37.636 29.5691 29.8787 37.3265 20.3096 37.3265V42.6735C32.8318 42.6735 42.9831 32.5223 42.9831 20H37.636ZM20.3096 2.67355C29.8787 2.67355 37.636 10.4309 37.636 20H42.9831C42.9831 7.47775 32.8318 -2.67355 20.3096 -2.67355V2.67355ZM2.98312 20C2.98312 10.4309 10.7404 2.67355 20.3096 2.67355V-2.67355C7.78732 -2.67355 -2.36398 7.47775 -2.36398 20H2.98312ZM20.3096 37.3265C10.7404 37.3265 2.98312 29.5691 2.98312 20H-2.36398C-2.36398 32.5223 7.78732 42.6735 20.3096 42.6735V37.3265ZM27.6261 24.1369C31.4044 24.1369 34.7462 22.3679 37.06 19.6621L32.9962 16.1869C31.5803 17.8427 29.6684 18.7898 27.6261 18.7898V24.1369ZM14.7086 9.99997C14.7086 17.5169 20.2171 24.1369 27.6261 24.1369V18.7898C23.7199 18.7898 20.0557 15.1452 20.0557 9.99997H14.7086ZM15.6984 4.56084C15.0584 6.24239 14.7086 8.08154 14.7086 9.99997H20.0557C20.0557 8.73279 20.2865 7.53808 20.6958 6.4628L15.6984 4.56084ZM8.3487 20.0999C8.3487 14.0512 12.796 9.03635 18.5985 8.15505L17.7956 2.86859C9.41941 4.14077 3.00161 11.3684 3.00161 20.0999H8.3487ZM9.40672 25.0532C8.72781 23.5451 8.3487 21.8703 8.3487 20.0999H3.00161C3.00161 22.6418 3.54745 25.0635 4.53087 27.2481L9.40672 25.0532ZM10.3093 22.2046C8.33517 22.2046 6.49572 22.9392 5.14773 24.1932L8.78986 28.1081C9.12816 27.7934 9.65866 27.5517 10.3093 27.5517V22.2046ZM17.617 29.0245C17.617 24.9861 14.0578 22.2046 10.3093 22.2046V27.5517C11.6795 27.5517 12.2699 28.483 12.2699 29.0245H17.617ZM13.8428 34.9969C15.9845 33.8935 17.617 31.7093 17.617 29.0245H12.2699C12.2699 29.4151 12.0314 29.9152 11.3939 30.2436L13.8428 34.9969ZM20.4313 32.1824C18.0778 32.1824 15.889 31.5122 14.0359 30.3534L11.2009 34.8871C13.8792 36.5619 17.0463 37.5295 20.4313 37.5295V32.1824ZM32.5138 20.0999C32.5138 26.7729 27.1043 32.1824 20.4313 32.1824V37.5295C30.0574 37.5295 37.8609 29.726 37.8609 20.0999H32.5138ZM32.3833 18.3153C32.4691 18.8963 32.5138 19.492 32.5138 20.0999H37.8609C37.8609 19.2296 37.7969 18.3726 37.673 17.5337L32.3833 18.3153Z" fill="#777777" mask="url(#path-2-inside-1_1311_2588)"/>
</svg>
