<svg width="197" height="40" viewBox="0 0 197 40" fill="none" xmlns="http://www.w3.org/2000/svg">
<path d="M87.1683 37.3946C84.1916 37.3946 81.6359 36.8685 79.5011 35.8161C77.3663 34.7637 75.6224 33.3957 74.2693 31.7119C72.9464 30.0281 71.9692 28.194 71.3378 26.2095C70.7063 24.2251 70.3906 22.3158 70.3906 20.4817V19.4894C70.3906 17.4448 70.7063 15.4303 71.3378 13.4458C71.9992 11.4614 73.0065 9.65733 74.3595 8.03369C75.7126 6.41004 77.4264 5.11713 79.5011 4.15497C81.6058 3.16274 84.0864 2.66663 86.9428 2.66663C89.9195 2.66663 92.5053 3.20784 94.7002 4.29027C96.9252 5.34264 98.6992 6.84602 100.022 8.80041C101.345 10.7247 102.142 12.9798 102.413 15.5656H95.9631C95.7225 14.0622 95.1813 12.7994 94.3394 11.7771C93.5276 10.7247 92.4903 9.94297 91.2274 9.43183C89.9646 8.89061 88.5364 8.62 86.9428 8.62C85.3192 8.62 83.8759 8.90564 82.6131 9.47693C81.3502 10.0181 80.2979 10.7999 79.456 11.8222C78.6141 12.8445 77.9676 14.0472 77.5166 15.4303C77.0957 16.8134 76.8852 18.3469 76.8852 20.0306C76.8852 21.6543 77.0957 23.1577 77.5166 24.5408C77.9676 25.9239 78.6291 27.1416 79.5011 28.194C80.373 29.2163 81.4404 30.0131 82.7033 30.5844C83.9962 31.1556 85.4845 31.4413 87.1683 31.4413C89.6339 31.4413 91.7085 30.8399 93.3923 29.6372C95.1061 28.4045 96.1435 26.6906 96.5043 24.4957H102.954C102.653 26.8409 101.856 28.9908 100.563 30.9452C99.2705 32.8996 97.4965 34.4631 95.2415 35.6357C92.9864 36.8083 90.2953 37.3946 87.1683 37.3946Z" fill="#777777"/>
<path d="M105.923 36.5377V3.61376H112.192V36.5377H105.923ZM102.856 8.30429V3.61376H112.192V8.30429H102.856Z" fill="#777777"/>
<path d="M128.865 37.3946C126.7 37.3946 124.791 37.0489 123.137 36.3573C121.484 35.6658 120.085 34.7337 118.943 33.561C117.8 32.3583 116.928 31.0053 116.327 29.5019C115.756 27.9985 115.47 26.435 115.47 24.8114V23.8643C115.47 22.1805 115.771 20.5869 116.372 19.0835C117.004 17.5501 117.891 16.197 119.033 15.0244C120.206 13.8217 121.619 12.8896 123.273 12.2281C124.926 11.5366 126.791 11.1908 128.865 11.1908C130.94 11.1908 132.804 11.5366 134.458 12.2281C136.111 12.8896 137.51 13.8217 138.652 15.0244C139.825 16.197 140.712 17.5501 141.313 19.0835C141.915 20.5869 142.215 22.1805 142.215 23.8643V24.8114C142.215 26.435 141.915 27.9985 141.313 29.5019C140.742 31.0053 139.885 32.3583 138.742 33.561C137.6 34.7337 136.202 35.6658 134.548 36.3573C132.894 37.0489 131 37.3946 128.865 37.3946ZM128.865 32.0276C130.399 32.0276 131.692 31.6968 132.744 31.0354C133.796 30.3438 134.593 29.4268 135.134 28.2842C135.675 27.1115 135.946 25.7886 135.946 24.3153C135.946 22.8119 135.66 21.4889 135.089 20.3463C134.548 19.1737 133.736 18.2567 132.654 17.5952C131.601 16.9036 130.339 16.5578 128.865 16.5578C127.392 16.5578 126.114 16.9036 125.032 17.5952C123.979 18.2567 123.167 19.1737 122.596 20.3463C122.025 21.4889 121.739 22.8119 121.739 24.3153C121.739 25.7886 122.01 27.1115 122.551 28.2842C123.122 29.4268 123.934 30.3438 124.986 31.0354C126.039 31.6968 127.332 32.0276 128.865 32.0276Z" fill="#777777"/>
<path d="M153.793 37.3045C150.967 37.3045 148.772 36.3724 147.208 34.5082C145.675 32.644 144.908 29.8778 144.908 26.2095V12.0026H151.177V26.7507C151.177 28.2541 151.598 29.4568 152.44 30.3588C153.282 31.2308 154.425 31.6668 155.868 31.6668C157.311 31.6668 158.484 31.2007 159.386 30.2686C160.318 29.3365 160.784 28.0737 160.784 26.4801V12.0026H167.053V36.5377H162.092V26.1193H162.588C162.588 28.5849 162.272 30.6445 161.641 32.2982C161.009 33.9519 160.062 35.1997 158.799 36.0416C157.537 36.8835 155.958 37.3045 154.064 37.3045H153.793Z" fill="#777777"/>
<path d="M182.147 37.3495C180.433 37.3495 178.855 37.0338 177.411 36.4024C175.968 35.771 174.72 34.884 173.668 33.7414C172.616 32.5989 171.804 31.2759 171.233 29.7725C170.661 28.2391 170.376 26.5854 170.376 24.8114V23.8643C170.376 22.1203 170.646 20.4817 171.187 18.9482C171.759 17.4148 172.541 16.0768 173.533 14.9342C174.555 13.7916 175.773 12.9046 177.186 12.2732C178.629 11.6117 180.223 11.281 181.967 11.281C183.891 11.281 185.575 11.7019 187.018 12.5438C188.491 13.3556 189.664 14.5884 190.536 16.2421C191.408 17.8958 191.889 19.9705 191.979 22.4661L190.13 20.3012V3.61376H196.399V36.5377H191.438V26.1193H192.52C192.43 28.6149 191.919 30.7046 190.987 32.3884C190.055 34.0421 188.822 35.2899 187.289 36.1318C185.785 36.9436 184.071 37.3495 182.147 37.3495ZM183.545 32.0727C184.778 32.0727 185.906 31.8021 186.928 31.2609C187.95 30.6896 188.762 29.8778 189.363 28.8254C189.995 27.743 190.31 26.4801 190.31 25.0369V23.2328C190.31 21.7896 189.995 20.5869 189.363 19.6247C188.732 18.6325 187.905 17.8808 186.883 17.3697C185.86 16.8284 184.748 16.5578 183.545 16.5578C182.192 16.5578 180.99 16.8886 179.937 17.5501C178.915 18.1815 178.103 19.0835 177.502 20.2561C176.93 21.4288 176.645 22.7969 176.645 24.3604C176.645 25.9239 176.945 27.292 177.547 28.4646C178.148 29.6072 178.96 30.4941 179.982 31.1256C181.035 31.757 182.222 32.0727 183.545 32.0727Z" fill="#777777"/>
<path d="M46.7715 40C44.6055 40 43.2708 39 41.0905 37.8223C38.9102 36.6445 32.6042 31.9027 32.6042 26C32.6042 21.9958 31.5719 18.7572 29.8141 16.1761C28.0693 13.6149 25.7057 11.8405 23.2467 10.5879C22.0618 9.98438 20.8288 9.49089 19.6009 9.08301C18.8851 8.84538 18.4697 8.07682 18.7803 7.38965C20.7487 3.0319 25.1325 0 30.2249 0C37.1569 0 42.7767 5.61947 42.7767 12.5518C42.7767 14.0348 42.5195 15.458 42.0472 16.7786C44.0478 15.4303 46.4583 14.6436 49.0524 14.6436C55.9844 14.6436 61.6042 20.263 61.6042 27.1953C61.6042 35.5407 54.2708 40 46.7715 40Z" fill="#777777"/>
<path d="M0.9375 26.1494C0.9375 32.7656 5.29948 38.2783 11.0781 39.4964C11.9701 39.8223 12.9329 40 13.9375 40H33.4391C34.0931 40 34.3779 39.1253 33.8786 38.7028C30.4704 35.819 27.9375 31.7549 27.9375 26C27.9375 22.8379 27.1367 20.5348 25.957 18.8034C24.764 17.0521 23.0859 15.7432 21.1286 14.7458C19.153 13.7396 17.0081 13.0986 14.96 12.6442C14.4775 12.5833 13.9867 12.5518 13.4893 12.5518C6.55697 12.5518 0.9375 18.6396 0.9375 26.1494Z" fill="#777777"/>
</svg>
