<svg width="199" height="40" viewBox="0 0 199 40" fill="none" xmlns="http://www.w3.org/2000/svg">
<path d="M64.1039 8.86739L64.4144 8.98681L64.538 8.67793L64.69 8.2979L64.8228 7.96591L64.4836 7.85284C61.868 6.98098 59.2859 6.54347 56.7385 6.54347C54.2097 6.54347 52.2502 7.13635 50.9228 8.38164C49.6056 9.59202 48.9529 11.18 48.9529 13.113C48.9529 15.5549 49.9708 17.4599 51.9911 18.7897C52.8684 19.3831 53.8339 19.9234 54.8867 20.4113L54.8866 20.4113L54.8929 20.4141C55.9328 20.8706 56.9601 21.3145 57.9747 21.7458L57.9775 21.7469C59.0034 22.1723 59.9391 22.6341 60.7855 23.1319C62.6209 24.2189 63.5078 25.6985 63.5078 27.5918C63.5078 29.3346 62.8246 30.6313 61.4564 31.5278C60.0769 32.423 58.3957 32.879 56.3965 32.879C55.0376 32.879 53.7036 32.6816 52.3934 32.2865C51.1046 31.8648 50.0671 31.3367 49.2707 30.7092L48.9754 30.4765L48.7762 30.7953L48.5862 31.0993L48.4167 31.3705L48.6785 31.5541C50.9479 33.1453 53.6784 33.9333 56.8525 33.9333C58.549 33.9333 60.0404 33.7407 61.3215 33.3485L61.3215 33.3485L61.3255 33.3472C62.6604 32.9201 63.7917 32.1189 64.7168 30.9559C65.6559 29.7753 66.1202 28.3564 66.1202 26.7178C66.1202 25.0882 65.8492 23.7251 65.2843 22.6483C64.7297 21.566 63.9973 20.7101 63.0838 20.0921C62.2041 19.4971 61.236 18.9681 60.1802 18.5046C59.1347 18.0456 58.0887 17.6373 57.0423 17.2798C56.0416 16.9044 55.1178 16.5048 54.2703 16.0812C52.4341 15.1138 51.5654 13.7856 51.5654 12.0869C51.5654 10.6647 52.0919 9.57679 53.1416 8.78371C54.2031 7.98167 55.7053 7.55978 57.6886 7.55978C59.6918 7.55978 61.8294 7.99258 64.1039 8.86739ZM79.8771 33.1301L79.8771 33.1302L79.883 33.1351C80.5223 33.6581 81.4077 33.8953 82.4907 33.8953H84.8088H85.1459V33.5582V33.2541V32.917H84.8088H83.6611L83.273 32.8464L83.257 32.8435L83.2407 32.8422C83.073 32.8282 82.8478 32.7112 82.5718 32.3693C82.3505 32.0415 82.2198 31.5513 82.2198 30.86V18.9653C82.2198 17.6652 81.8871 16.5716 81.195 15.7135L81.1951 15.7134L81.1905 15.708C80.727 15.1577 80.0127 14.7641 79.0927 14.5005C78.1856 14.208 77.0212 14.0679 75.6123 14.0679C74.1343 14.0679 72.7809 14.5806 71.5611 15.5877C70.7997 16.2004 70.1828 16.8511 69.717 17.5409V14.5571V14.2199H69.3799H66.7197H66.3826V14.5571V33.5582V33.8953H66.7197H69.3799H69.717V33.5582V20.0674C69.717 19.1939 70.2799 18.1371 71.554 16.8879L71.5564 16.8856C72.794 15.648 74.1679 15.0462 75.6883 15.0462C76.4355 15.0462 77.0388 15.1664 77.512 15.39C78.3755 15.8578 78.8853 16.965 78.8853 18.9273V30.86V30.8699L78.8859 30.8798L78.9238 31.5247C78.9239 31.5249 78.9239 31.5251 78.9239 31.5253C78.9567 32.112 79.3122 32.6459 79.8771 33.1301ZM85.6469 16.7888L85.6452 16.7905C83.8437 18.6185 82.964 21.171 82.964 24.3996C82.964 27.6222 83.8156 30.0732 85.5825 31.6795C87.3274 33.2658 89.5794 34.0473 92.3077 34.0473C95.0738 34.0473 97.3673 33.1437 99.1596 31.3253C100.987 29.4976 101.879 26.9449 101.879 23.7156C101.879 20.493 101.028 18.042 99.2609 16.4357C97.5154 14.8489 95.2504 14.0679 92.4977 14.0679C89.7557 14.0679 87.4634 14.9724 85.6469 16.7888ZM88.0556 17.4949L88.0571 17.4929C89.2684 15.8455 90.7685 15.0462 92.5737 15.0462C94.3994 15.0462 95.8463 15.7364 96.9458 17.1227C98.0422 18.5051 98.6209 20.6816 98.6209 23.7156C98.6209 26.7127 97.9961 29.0145 96.787 30.6595C95.5766 32.2807 94.0766 33.069 92.2697 33.069C90.444 33.069 88.9971 32.3788 87.8976 30.9925C86.8009 29.6098 86.2225 27.4455 86.2225 24.4376C86.2225 21.4135 86.848 19.1132 88.0556 17.4949ZM127.461 14.5467L127.214 14.7929L127.468 15.031C127.786 15.3286 127.97 15.7842 127.97 16.4572C127.97 17.1449 127.828 17.7182 127.558 18.19L127.551 18.2027L127.545 18.2159L122.375 29.4109L116.843 14.4402L116.761 14.2199H116.526H113.866H113.384L113.55 14.673L114.908 18.3807L109.834 29.4094L104.302 14.4402L104.22 14.2199H103.986H101.326H100.84L101.01 14.6746L108.078 33.6757L108.16 33.8953H108.394H108.774H108.991L109.081 33.6977L115.431 19.7343L120.619 33.6757L120.7 33.8953H120.935H121.315H121.532L121.622 33.6978L128.538 18.4969L128.538 18.4969L128.541 18.4901C128.861 17.7441 129.024 17.0024 129.024 16.2672C129.024 16.0637 128.996 15.8522 128.943 15.634C128.904 15.3662 128.775 15.0964 128.59 14.8295C128.511 14.6987 128.434 14.585 128.357 14.4932C128.283 14.4042 128.19 14.3117 128.078 14.2555L127.86 14.1468L127.689 14.3187L127.461 14.5467Z" fill="#777777" stroke="#777777" stroke-width="0.674298"/>
<path d="M134.882 7.33106C135.538 6.32395 136.581 5.53932 138.02 5.41161L137.687 31.1219H137.687V31.1263C137.687 31.3979 137.771 31.6784 137.912 31.9611C138.585 33.3065 140.171 33.8956 142.432 33.8956H143.61H143.947V33.5584V33.2544V32.9173H143.61H142.463L142.074 32.8467L142.058 32.8438L142.042 32.8424C141.874 32.8284 141.649 32.7115 141.373 32.3695C141.152 32.0418 141.021 31.5516 141.021 30.8603V5.09477V4.76309L140.69 4.75766L138.367 4.71966L138.029 4.71412L138.029 4.7258C135.494 4.79712 133.576 5.41368 132.348 6.64119C131.062 7.90109 130.462 9.97667 130.462 12.7712V14.2202H130.001H129.664V14.5573V15.1713V15.5085H130.001H130.462V33.5584V33.8956H130.799H133.459H133.796V33.5584V15.5085H136.461H136.799V15.1713V14.5573V14.2202H136.461H133.796V12.7712C133.796 10.1773 134.177 8.3876 134.88 7.3339L134.88 7.33391L134.882 7.33106ZM154.783 18.2299V24.0729C154.313 24.0407 153.804 24.0247 153.258 24.0247C152.563 24.0247 151.807 24.0632 150.989 24.1397C149.345 24.2419 147.977 24.4339 146.892 24.7199C145.811 25.0047 144.978 25.3908 144.437 25.9032C143.938 26.3761 143.594 26.8465 143.469 27.3152C143.362 27.7182 143.306 28.1024 143.306 28.4661C143.306 28.788 143.333 29.1096 143.386 29.4307C143.611 30.9349 144.203 32.1034 145.191 32.891C146.175 33.6758 147.51 34.0476 149.153 34.0476C150.568 34.0476 151.809 33.7558 152.863 33.1582C153.62 32.7291 154.271 32.1479 154.818 31.4201C154.925 31.8788 155.271 32.3445 155.756 32.8093C156.491 33.569 157.791 33.8956 159.528 33.8956H160.706H160.94H161.043H161.277H163.937H164.274V33.5584V24.5261L164.93 23.7729L171.715 33.748L171.815 33.8956H171.994H174.654H175.291L174.933 33.3688L166.91 21.5769L172.93 14.7809L173.427 14.2202H172.678H172.298H172.146L172.046 14.3336L164.274 23.0938V5.05676V4.71961H163.937H161.277H160.94V5.05676V32.9173H160.706H159.558L159.17 32.8467L159.154 32.8438L159.138 32.8424C158.97 32.8284 158.745 32.7115 158.469 32.3695C158.248 32.0418 158.117 31.5515 158.117 30.8603V18.1295C158.117 17.2187 157.745 16.369 157.043 15.5867C156.567 15.0529 155.86 14.676 154.961 14.4315C154.061 14.1866 152.946 14.0682 151.624 14.0682C149.241 14.0682 146.9 14.5994 144.604 15.6572L144.27 15.8112L144.453 16.1307L144.605 16.3967L144.771 16.688L145.063 16.5229C145.607 16.2153 146.486 15.8946 147.72 15.5672L147.72 15.5673L147.724 15.566C148.972 15.2166 150.043 15.0465 150.94 15.0465C151.851 15.0465 152.56 15.1702 153.085 15.3985L153.085 15.3987L153.097 15.4033C153.65 15.6196 153.985 15.8661 154.159 16.1173L154.436 15.9254L154.159 16.1173C154.371 16.4239 154.534 16.7397 154.65 17.0648L154.655 17.079L154.662 17.0927C154.798 17.3871 154.818 17.5848 154.791 17.7108C154.765 17.819 154.745 17.928 154.745 18.025C154.745 18.074 154.75 18.1405 154.774 18.2091C154.777 18.2159 154.78 18.2228 154.783 18.2299ZM154.783 29.3247C154.713 30.0523 154.209 30.8726 153.152 31.7823C152.146 32.6445 151.02 33.0693 149.762 33.0693C148.83 33.0693 148.143 32.7653 147.654 32.1826C147.153 31.586 146.826 30.6579 146.715 29.3497L146.715 29.3496L146.715 29.3446C146.69 29.0997 146.678 28.8832 146.678 28.6941C146.678 27.6382 146.953 26.8547 147.464 26.3003C147.702 26.0412 148.102 25.7989 148.702 25.5928C149.299 25.388 150.068 25.2272 151.016 25.1148C151.687 25.0403 152.359 25.003 153.03 25.003C153.623 25.003 154.208 25.021 154.783 25.0568V29.3247ZM177.067 22.4949H190.329H190.666V22.1578V22.157V22.1563V22.1555V22.1548V22.154V22.1533V22.1526V22.1518V22.1511V22.1503V22.1496V22.1488V22.1481V22.1474V22.1466V22.1459V22.1451V22.1444V22.1437V22.1429V22.1422V22.1414V22.1407V22.1399V22.1392V22.1385V22.1377V22.137V22.1362V22.1355V22.1347V22.134V22.1333V22.1325V22.1318V22.131V22.1303V22.1296V22.1288V22.1281V22.1273V22.1266V22.1258V22.1251V22.1244V22.1236V22.1229V22.1221V22.1214V22.1206V22.1199V22.1192V22.1184V22.1177V22.1169V22.1162V22.1154V22.1147V22.114V22.1132V22.1125V22.1117V22.111V22.1103V22.1095V22.1088V22.108V22.1073V22.1065V22.1058V22.1051V22.1043V22.1036V22.1028V22.1021V22.1013V22.1006V22.0999V22.0991V22.0984V22.0976V22.0969V22.0962V22.0954V22.0947V22.0939V22.0932V22.0924V22.0917V22.091V22.0902V22.0895V22.0887V22.088V22.0872V22.0865V22.0858V22.085V22.0843V22.0835V22.0828V22.082V22.0813V22.0806V22.0798V22.0791V22.0783V22.0776V22.0769V22.0761V22.0754V22.0746V22.0739V22.0731V22.0724V22.0717V22.0709V22.0702V22.0694V22.0687V22.0679V22.0672V22.0665V22.0657V22.065V22.0642V22.0635V22.0628V22.062V22.0613V22.0605V22.0598V22.059V22.0583V22.0576V22.0568V22.0561V22.0553V22.0546V22.0538V22.0531V22.0524V22.0516V22.0509V22.0501V22.0494V22.0486V22.0479V22.0472V22.0464V22.0457V22.0449V22.0442V22.0435V22.0427V22.042V22.0412V22.0405V22.0397V22.039V22.0383V22.0375V22.0368V22.036V22.0353V22.0345V22.0338V22.0331V22.0323V22.0316V22.0308V22.0301V22.0294V22.0286V22.0279V22.0271V22.0264V22.0256V22.0249V22.0242V22.0234V22.0227V22.0219V22.0212V22.0204V22.0197V22.019V22.0182V22.0175V22.0167V22.016V22.0152V22.0145V22.0138V22.013V22.0123V22.0115V22.0108V22.0101V22.0093V22.0086V22.0078V22.0071V22.0063V22.0056V22.0049V22.0041V22.0034V22.0026V22.0019V22.0011V22.0004V21.9997V21.9989V21.9982V21.9974V21.9967V21.996V21.9952V21.9945V21.9937V21.993V21.9922V21.9915V21.9908V21.99V21.9893V21.9885V21.9878V21.987V21.9863V21.9856V21.9848V21.9841V21.9833V21.9826V21.9818V21.9811V21.9804V21.9796V21.9789V21.9781V21.9774V21.9767V21.9759V21.9752V21.9744V21.9737V21.9729V21.9722V21.9715V21.9707V21.97V21.9692V21.9685V21.9677V21.967V21.9663V21.9655V21.9648V21.964V21.9633V21.9626V21.9618V21.9611V21.9603V21.9596V21.9588V21.9581V21.9574V21.9566V21.9559V21.9551V21.9544V21.9536V21.9529V21.9522V21.9514V21.9507V21.9499V21.9492V21.9484V21.9477V21.947V21.9462V21.9455V21.9447V21.944V21.9433V21.9425V21.9418V21.941V21.9403V21.9395V21.9388V21.9381V21.9373V21.9366V21.9358V21.9351V21.9343V21.9336V21.9329V21.9321V21.9314V21.9306V21.9299V21.9291V21.9284V21.9277V21.9269V21.9262V21.9254V21.9247V21.924V21.9232V21.9225V21.9217V21.921V21.9202V21.9195V21.9188V21.918V21.9173V21.9165V21.9158V21.915V21.9143V21.9136V21.9128V21.9121V21.9113V21.9106V21.9099V21.9091V21.9084V21.9076V21.9069V21.9061V21.9054V21.9047V21.9039V21.9032V21.9024V21.9017V21.9009V21.9002V21.8995V21.8987V21.898V21.8972V21.8965V21.8958V21.895V21.8943V21.8935V21.8928V21.892V21.8913V21.8906V21.8898V21.8891V21.8883V21.8876V21.8868V21.8861V21.8854V21.8846V21.8839V21.8831V21.8824V21.8816V21.8809V21.8802V21.8794V21.8787V21.8779V21.8772V21.8765V21.8757V21.875V21.8742V21.8735V21.8727V21.872V21.8713V21.8705V21.8698V21.869V21.8683V21.8675V21.8668V21.8661V21.8653V21.8646V21.8638V21.8631V21.8623V21.8616V21.8609V21.8601V21.8594V21.8586V21.8579V21.8572V21.8564V21.8557V21.8549V21.8542V21.8534V21.8527V21.852V21.8512V21.8505V21.8497V21.849V21.8482V21.8475V21.8468V21.846V21.8453V21.8445V21.8438V21.8431V21.8423V21.8416V21.8408V21.8401V21.8393V21.8386V21.8379V21.8371V21.8364V21.8356V21.8349V21.8341V21.8334V21.8327V21.8319V21.8312V21.8304V21.8297V21.8289V21.8282V21.8275V21.8267V21.826V21.8252V21.8245V21.8238V21.823V21.8223V21.8215V21.8208V21.82V21.8193V21.8186V21.8178V21.8171V21.8163V21.8156V21.8148V21.8141V21.8134V21.8126V21.8119V21.8111V21.8104V21.8097V21.8089V21.8082V21.8074V21.8067V21.8059V21.8052V21.8045V21.8037V21.803V21.8022V21.8015V21.8007V21.8V21.7993V21.7985V21.7978V21.797V21.7963V21.7955V21.7948V21.7941V21.7933V21.7926V21.7918V21.7911V21.7904V21.7896V21.7889V21.7881V21.7874V21.7866V21.7859V21.7852V21.7844V21.7837V21.7829V21.7822V21.7814V21.7807V21.78V21.7792V21.7785V21.7777C190.666 19.2785 189.935 17.3366 188.423 16.0137C186.936 14.7129 185.107 14.0682 182.957 14.0682C180.288 14.0682 178.069 14.9749 176.329 16.7944C174.58 18.6228 173.727 21.1739 173.727 24.3999C173.727 27.6182 174.538 30.0672 176.226 31.6744C177.894 33.2632 180.047 34.0476 182.653 34.0476C185.246 34.0476 187.581 33.6496 189.653 32.8467L189.979 32.7205L189.841 32.3995L189.727 32.1335L189.599 31.8351L189.296 31.9517C187.365 32.6943 185.153 33.0693 182.653 33.0693C180.963 33.0693 179.605 32.3869 178.552 31C177.528 29.6173 176.986 27.4005 176.986 24.2859C176.986 23.6699 177.013 23.073 177.067 22.4949ZM186.073 16.6652C186.878 17.6935 187.338 19.2929 187.401 21.5166H177.191C177.515 19.5179 178.185 17.9652 179.18 16.8337C180.269 15.6249 181.474 15.0465 182.805 15.0465C184.142 15.0465 185.223 15.5791 186.073 16.6652Z" fill="#777777" stroke="#777777" stroke-width="0.674298"/>
<path d="M193.836 4.65765V5.66162H192.695V8.71612H191.611V5.66162H190.47V4.65765H193.836Z" fill="#777777"/>
<path d="M198.285 4.5968V8.73437H197.202V6.72643L196.408 7.66956H196.083L195.289 6.72643V8.73437H194.206V4.5968H194.588L196.246 6.36135L197.903 4.5968H198.285Z" fill="#777777"/>
<path fill-rule="evenodd" clip-rule="evenodd" d="M19.2118 26.9456L19.1953 39.9965L21.9536 40L21.9703 26.8912L27.0019 38.9959L29.549 37.9372L24.5514 25.9144L33.7465 35.1328L35.6995 33.1848L26.4663 23.9282L38.5411 28.9394L39.5984 26.3917L27.5204 21.3792H40.5971V18.6208H27.5526L39.61 13.6411L38.5571 11.0916L26.5511 16.05L35.7834 6.91217L33.843 4.9517L24.4944 14.2047L29.5319 2.05478L26.9838 0.998321L21.9878 13.0482L22.0043 0.0034958L19.246 0L19.2293 13.111L14.1968 1.00435L11.6497 2.06312L16.6462 14.0832L7.45355 4.86715L5.50061 6.81515L14.7351 16.0731L2.65688 11.0604L1.59955 13.6081L13.6778 18.6208H0.600586V21.3792H13.6477L1.58924 26.3593L2.64219 28.9088L14.6479 23.9504L5.41615 33.0878L7.35657 35.0483L16.7009 25.7995L11.6652 37.9451L14.2133 39.0015L19.2118 26.9456Z" fill="#777777"/>
</svg>
