<svg width="220" height="40" viewBox="0 0 220 40" fill="none" xmlns="http://www.w3.org/2000/svg">
<path d="M70.8055 35.7354C67.6384 35.7354 64.839 35.1133 62.4072 33.8692C59.9754 32.5967 58.095 30.8011 56.766 28.4824C55.437 26.1637 54.7725 23.435 54.7725 20.2963C54.7725 17.1575 55.437 14.4288 56.766 12.1101C58.095 9.76311 59.9754 7.96753 62.4072 6.72335C64.839 5.45089 67.6384 4.81465 70.8055 4.81465C72.9545 4.81465 74.8491 5.04087 76.4891 5.4933C78.1575 5.91745 79.6844 6.5961 81.07 7.52924V13.6795C79.8258 12.6615 78.3978 11.9263 76.786 11.4739C75.2025 10.9932 73.3928 10.7528 71.3569 10.7528C69.4623 10.7528 67.7516 11.1487 66.2246 11.9404C64.7259 12.7039 63.5383 13.8067 62.6617 15.2488C61.7851 16.691 61.3468 18.3734 61.3468 20.2963C61.3468 22.2474 61.7427 23.9581 62.5345 25.4285C63.3545 26.8706 64.4997 27.9876 65.9701 28.7793C67.4405 29.5711 69.1371 29.967 71.0599 29.967C72.8131 29.967 74.3401 29.6559 75.6408 29.0338V23.3077H70.8479V18.5572H81.8759V32.8512C79.0764 34.774 75.3863 35.7354 70.8055 35.7354Z" fill="#777777"/>
<path d="M83.3647 14.7398H89.5573V17.6665C90.3774 16.6768 91.5226 15.9275 92.993 15.4185C94.4634 14.8812 96.1317 14.6126 97.998 14.6126V19.4904C96.0469 19.4904 94.322 19.7873 92.8233 20.3811C91.3529 20.9749 90.335 21.8798 89.7694 23.0957V35.0992H83.3647V14.7398Z" fill="#777777"/>
<path d="M110.306 35.7354C106.404 35.7354 103.336 34.8023 101.102 32.936C98.8681 31.0415 97.7511 28.3976 97.7511 25.0044C97.7511 21.6394 98.7408 18.9814 100.72 17.0303C102.728 15.0792 105.584 14.1036 109.288 14.1036C111.72 14.1036 113.784 14.556 115.481 15.4609C117.177 16.3658 118.464 17.6241 119.341 19.2359C120.217 20.8194 120.655 22.615 120.655 24.6226V27.21H103.859C104.311 29.8114 106.743 31.1122 111.154 31.1122C112.455 31.1122 113.798 30.9991 115.184 30.7728C116.569 30.5466 117.771 30.2356 118.789 29.8397V34.3357C117.799 34.7599 116.527 35.0992 114.972 35.3537C113.417 35.6082 111.861 35.7354 110.306 35.7354ZM114.59 23.0533C114.505 21.696 113.996 20.6497 113.063 19.9145C112.13 19.151 110.843 18.7693 109.203 18.7693C107.591 18.7693 106.319 19.151 105.386 19.9145C104.453 20.678 103.944 21.7242 103.859 23.0533H114.59Z" fill="#777777"/>
<path d="M133.784 35.7354C129.881 35.7354 126.813 34.8023 124.579 32.936C122.346 31.0415 121.229 28.3976 121.229 25.0044C121.229 21.6394 122.218 18.9814 124.198 17.0303C126.205 15.0792 129.061 14.1036 132.766 14.1036C135.197 14.1036 137.262 14.556 138.958 15.4609C140.655 16.3658 141.941 17.6241 142.818 19.2359C143.695 20.8194 144.133 22.615 144.133 24.6226V27.21H127.336C127.789 29.8114 130.221 31.1122 134.632 31.1122C135.933 31.1122 137.276 30.9991 138.661 30.7728C140.047 30.5466 141.249 30.2356 142.267 29.8397V34.3357C141.277 34.7599 140.005 35.0992 138.449 35.3537C136.894 35.6082 135.339 35.7354 133.784 35.7354ZM138.068 23.0533C137.983 21.696 137.474 20.6497 136.541 19.9145C135.607 19.151 134.321 18.7693 132.681 18.7693C131.069 18.7693 129.797 19.151 128.863 19.9145C127.93 20.678 127.421 21.7242 127.336 23.0533H138.068Z" fill="#777777"/>
<path d="M145.555 14.7398H151.747V17.2424C152.68 16.1961 153.783 15.4185 155.056 14.9095C156.356 14.3722 157.714 14.1036 159.127 14.1036C161.899 14.1036 163.963 14.853 165.32 16.3516C166.706 17.822 167.398 19.8155 167.398 22.3322V35.0992H160.994V23.0533C160.994 20.4235 159.778 19.1086 157.346 19.1086C156.271 19.1086 155.268 19.3773 154.335 19.9145C153.401 20.4235 152.61 21.187 151.959 22.2049V35.0992H145.555V14.7398Z" fill="#777777"/>
<path d="M173.05 11.6011C172.06 11.6011 171.226 11.2759 170.547 10.6256C169.868 9.97519 169.529 9.15516 169.529 8.16547C169.529 7.20405 169.868 6.39816 170.547 5.74779C171.226 5.06915 172.06 4.72983 173.05 4.72983C174.039 4.72983 174.873 5.06915 175.552 5.74779C176.231 6.39816 176.57 7.20405 176.57 8.16547C176.57 9.15516 176.231 9.97519 175.552 10.6256C174.873 11.2759 174.039 11.6011 173.05 11.6011ZM169.826 14.7398H176.273V35.0992H169.826V14.7398Z" fill="#777777"/>
<path d="M187.196 35.7354C185.669 35.7354 184.029 35.5658 182.276 35.2265C180.551 34.9154 179.194 34.463 178.204 33.8692V28.8642C179.335 29.5428 180.693 30.0942 182.276 30.5184C183.86 30.9425 185.33 31.1546 186.687 31.1546C187.847 31.1546 188.695 31.0556 189.232 30.8577C189.77 30.6597 190.038 30.2921 190.038 29.7549C190.038 29.3307 189.883 28.9914 189.572 28.7369C189.261 28.4541 188.78 28.2138 188.13 28.0158C187.507 27.7896 186.461 27.4644 184.991 27.0403C183.266 26.5313 181.909 26.0223 180.919 25.5133C179.958 24.9761 179.222 24.3116 178.713 23.5198C178.233 22.7281 177.992 21.7101 177.992 20.4659C177.992 18.3451 178.826 16.7616 180.495 15.7154C182.191 14.6409 184.482 14.1036 187.366 14.1036C188.78 14.1036 190.236 14.2591 191.735 14.5702C193.262 14.853 194.435 15.2347 195.255 15.7154V20.5932C194.435 20.0559 193.361 19.6176 192.032 19.2783C190.731 18.939 189.459 18.7693 188.214 18.7693C187.055 18.7693 186.15 18.8824 185.5 19.1086C184.878 19.3348 184.567 19.759 184.567 20.3811C184.567 20.9183 184.864 21.3284 185.457 21.6111C186.08 21.8939 187.225 22.2474 188.893 22.6715L189.741 22.8836C191.523 23.3643 192.908 23.9016 193.898 24.4954C194.888 25.0609 195.581 25.7537 195.976 26.5737C196.401 27.3655 196.613 28.3693 196.613 29.5852C196.613 31.4515 195.807 32.9502 194.195 34.0812C192.583 35.184 190.25 35.7354 187.196 35.7354Z" fill="#777777"/>
<path d="M198.093 3.75427H204.498V17.0727C205.459 16.083 206.548 15.3478 207.764 14.8671C208.98 14.3581 210.281 14.1036 211.666 14.1036C214.437 14.1036 216.501 14.853 217.859 16.3516C219.244 17.822 219.937 19.8155 219.937 22.3322V35.0992H213.532V23.0533C213.532 20.4235 212.316 19.1086 209.885 19.1086C208.81 19.1086 207.806 19.3773 206.873 19.9145C205.94 20.4235 205.148 21.187 204.498 22.2049V35.0992H198.093V3.75427Z" fill="#777777"/>
<path fill-rule="evenodd" clip-rule="evenodd" d="M32.9012 9.75552C32.9012 15.1433 28.5335 19.511 23.1457 19.511C17.7578 19.511 13.3901 15.1433 13.3901 9.75552C13.3901 4.3677 17.7578 0 23.1457 0C28.5335 0 32.9012 4.3677 32.9012 9.75552ZM0.453231 18.8021C11.0816 18.0856 20.3446 26.0431 21.2074 36.694C21.2968 37.7977 21.2925 38.8873 21.2012 39.9551C10.5728 40.6716 1.30985 32.7141 0.447061 22.0632C0.357655 20.9595 0.36193 19.8699 0.453231 18.8021ZM28.0788 39.5823C38.7297 38.7195 46.6871 29.4565 45.9707 18.8282C44.9029 18.7369 43.8133 18.7326 42.7096 18.822C32.0587 19.6848 24.1013 28.9477 24.8177 39.5761C25.8855 39.6674 26.9751 39.6717 28.0788 39.5823Z" fill="#777777"/>
</svg>
