<svg width="150" height="40" viewBox="0 0 150 40" fill="none" xmlns="http://www.w3.org/2000/svg">
<path d="M69.5358 8.2V11.94H59.5058V18.604H69.1958V22.344H59.5058V32H55.5958V8.2H69.5358ZM76.4235 11.77C75.9701 12.2233 75.4261 12.45 74.7915 12.45C74.1568 12.45 73.6015 12.2233 73.1255 11.77C72.6721 11.294 72.4455 10.7387 72.4455 10.104C72.4455 9.46933 72.6721 8.92533 73.1255 8.472C73.5788 7.996 74.1341 7.758 74.7915 7.758C75.4488 7.758 76.0041 7.996 76.4575 8.472C76.9108 8.92533 77.1375 9.46933 77.1375 10.104C77.1375 10.7387 76.8995 11.294 76.4235 11.77ZM76.6275 32H72.9555V15H76.6275V32ZM89.833 14.558C91.805 14.558 93.3804 15.1927 94.559 16.462C95.7604 17.7087 96.361 19.4087 96.361 21.562V32H92.689V21.936C92.689 20.6667 92.349 19.692 91.669 19.012C90.989 18.332 90.0597 17.992 88.881 17.992C87.5437 17.992 86.4897 18.4113 85.719 19.25C84.9484 20.066 84.563 21.2787 84.563 22.888V32H80.891V15H84.563V17.176C85.6964 15.4307 87.453 14.558 89.833 14.558ZM100.553 8.2H109.325C111.569 8.2 113.439 8.948 114.935 10.444C116.454 11.94 117.213 13.7987 117.213 16.02C117.213 18.2187 116.454 20.0773 114.935 21.596C113.439 23.092 111.569 23.84 109.325 23.84H104.463V32H100.553V8.2ZM104.463 20.168H109.325C110.481 20.168 111.433 19.7827 112.181 19.012C112.929 18.2187 113.303 17.2213 113.303 16.02C113.303 14.8187 112.929 13.8327 112.181 13.062C111.433 12.2687 110.481 11.872 109.325 11.872H104.463V20.168ZM123.71 15V17.856C124.639 15.748 126.384 14.694 128.946 14.694V18.672C127.563 18.5813 126.339 18.9213 125.274 19.692C124.231 20.44 123.71 21.6867 123.71 23.432V32H120.038V15H123.71ZM145.244 29.858C143.521 31.5807 141.402 32.442 138.886 32.442C136.37 32.442 134.25 31.5807 132.528 29.858C130.782 28.1127 129.91 25.9933 129.91 23.5C129.91 21.0067 130.782 18.8873 132.528 17.142C134.25 15.4193 136.37 14.558 138.886 14.558C141.402 14.558 143.521 15.4193 145.244 17.142C146.989 18.8873 147.862 21.0067 147.862 23.5C147.862 25.9933 146.989 28.1127 145.244 29.858ZM133.582 23.5C133.582 25.0413 134.092 26.322 135.112 27.342C136.132 28.362 137.39 28.872 138.886 28.872C140.382 28.872 141.64 28.362 142.66 27.342C143.68 26.322 144.19 25.0413 144.19 23.5C144.19 21.9587 143.68 20.678 142.66 19.658C141.64 18.638 140.382 18.128 138.886 18.128C137.39 18.128 136.132 18.638 135.112 19.658C134.092 20.678 133.582 21.9587 133.582 23.5Z" fill="#0A0D14"/>
<path fill-rule="evenodd" clip-rule="evenodd" d="M27.5488 20.0006C27.5488 21.6781 28.913 23.0423 30.5905 23.0423H42.4461C42.8222 23.0423 43.1271 22.7374 43.1271 22.3613V17.64C43.1271 17.2638 42.8222 16.959 42.4461 16.959H30.5905C28.913 16.959 27.5488 18.3232 27.5488 20.0006Z" fill="#0A0D14"/>
<path fill-rule="evenodd" clip-rule="evenodd" d="M30.589 26.4465C27.0367 26.4465 24.1425 23.5524 24.1425 20C24.1425 16.4476 27.0367 13.5535 30.589 13.5535H42.4469C42.8231 13.5535 43.1279 13.2486 43.1279 12.8725V11.5106C43.1279 5.164 37.9684 0 31.6264 0H11.4993C5.15719 0 0 5.164 0 11.5106V28.4894C0 34.836 5.15719 40 11.4993 40H31.6264C37.9684 40 43.1279 34.836 43.1279 28.4894V27.1275C43.1279 26.7513 42.8231 26.4465 42.4469 26.4465H30.589Z" fill="#0A0D14"/>
</svg>
