<svg width="102" height="24" viewBox="0 0 102 24" fill="none" xmlns="http://www.w3.org/2000/svg">
<path d="M45.6177 2.2V4.84H38.5377V9.544H45.3777V12.184H38.5377V19H35.7777V2.2H45.6177ZM50.4795 4.72C50.1595 5.04 49.7755 5.2 49.3275 5.2C48.8795 5.2 48.4875 5.04 48.1515 4.72C47.8315 4.384 47.6715 3.992 47.6715 3.544C47.6715 3.096 47.8315 2.712 48.1515 2.392C48.4715 2.056 48.8635 1.888 49.3275 1.888C49.7915 1.888 50.1835 2.056 50.5035 2.392C50.8235 2.712 50.9835 3.096 50.9835 3.544C50.9835 3.992 50.8155 4.384 50.4795 4.72ZM50.6235 19H48.0315V7H50.6235V19ZM59.9451 6.688C61.3371 6.688 62.4491 7.136 63.2811 8.032C64.1291 8.912 64.5531 10.112 64.5531 11.632V19H61.9611V11.896C61.9611 11 61.7211 10.312 61.2411 9.832C60.7611 9.352 60.1051 9.112 59.2731 9.112C58.3291 9.112 57.5851 9.408 57.0411 10C56.4971 10.576 56.2251 11.432 56.2251 12.568V19H53.6331V7H56.2251V8.536C57.0251 7.304 58.2651 6.688 59.9451 6.688ZM67.512 2.2H73.704C75.288 2.2 76.608 2.728 77.664 3.784C78.736 4.84 79.272 6.152 79.272 7.72C79.272 9.272 78.736 10.584 77.664 11.656C76.608 12.712 75.288 13.24 73.704 13.24H70.272V19H67.512V2.2ZM70.272 10.648H73.704C74.52 10.648 75.192 10.376 75.72 9.832C76.248 9.272 76.512 8.568 76.512 7.72C76.512 6.872 76.248 6.176 75.72 5.632C75.192 5.072 74.52 4.792 73.704 4.792H70.272V10.648ZM83.8579 7V9.016C84.5139 7.528 85.7459 6.784 87.5539 6.784V9.592C86.5779 9.528 85.7139 9.768 84.9619 10.312C84.2259 10.84 83.8579 11.72 83.8579 12.952V19H81.2659V7H83.8579ZM99.0585 17.488C97.8425 18.704 96.3465 19.312 94.5705 19.312C92.7945 19.312 91.2985 18.704 90.0825 17.488C88.8505 16.256 88.2345 14.76 88.2345 13C88.2345 11.24 88.8505 9.744 90.0825 8.512C91.2985 7.296 92.7945 6.688 94.5705 6.688C96.3465 6.688 97.8425 7.296 99.0585 8.512C100.291 9.744 100.907 11.24 100.907 13C100.907 14.76 100.291 16.256 99.0585 17.488ZM90.8265 13C90.8265 14.088 91.1865 14.992 91.9065 15.712C92.6265 16.432 93.5145 16.792 94.5705 16.792C95.6265 16.792 96.5145 16.432 97.2345 15.712C97.9545 14.992 98.3145 14.088 98.3145 13C98.3145 11.912 97.9545 11.008 97.2345 10.288C96.5145 9.568 95.6265 9.208 94.5705 9.208C93.5145 9.208 92.6265 9.568 91.9065 10.288C91.1865 11.008 90.8265 11.912 90.8265 13Z" fill="white"/>
<path fill-rule="evenodd" clip-rule="evenodd" d="M16.5293 12.0003C16.5293 13.0067 17.3478 13.8252 18.3543 13.8252H25.4677C25.6933 13.8252 25.8763 13.6423 25.8763 13.4167V10.5838C25.8763 10.3582 25.6933 10.1753 25.4677 10.1753H18.3543C17.3478 10.1753 16.5293 10.9938 16.5293 12.0003Z" fill="white"/>
<path fill-rule="evenodd" clip-rule="evenodd" d="M18.3534 15.8679C16.222 15.8679 14.4855 14.1314 14.4855 12C14.4855 9.86857 16.222 8.13211 18.3534 8.13211H25.4682C25.6938 8.13211 25.8767 7.94919 25.8767 7.72353V6.90637C25.8767 3.0984 22.7811 0 18.9758 0H6.89956C3.09431 0 0 3.0984 0 6.90637V17.0936C0 20.9016 3.09431 24 6.89956 24H18.9758C22.7811 24 25.8767 20.9016 25.8767 17.0936V16.2765C25.8767 16.0508 25.6938 15.8679 25.4682 15.8679H18.3534Z" fill="white"/>
</svg>
