<svg width="511" height="198" viewBox="0 0 511 198" fill="none" xmlns="http://www.w3.org/2000/svg">
<rect x="20.9959" y="0.627825" width="138" height="163" rx="9.5" transform="rotate(7 20.9959 0.627825)" fill="#1A1F2D" stroke="#6DDB5B"/>
<path d="M116.731 107.999H130.981V132.319H116.731V154.929H90.3214V132.319H27.4314V107.999L71.7014 21.9293H99.8214L55.7414 107.999H90.3214V76.4593H116.731V107.999Z" fill="#6DDB5B"/>
<rect x="177.082" y="17.4458" width="138" height="163" rx="9.5" transform="rotate(-7 177.082 17.4458)" fill="#1A1F2D" stroke="#6DDB5B"/>
<path d="M254.01 157.589C237.417 157.589 224.37 151.319 214.87 138.779C205.497 125.986 200.81 109.203 200.81 88.4293C200.81 67.656 205.497 50.936 214.87 38.2693C224.37 25.6026 237.417 19.2693 254.01 19.2693C270.857 19.2693 283.903 25.6026 293.15 38.2693C302.523 50.936 307.21 67.656 307.21 88.4293C307.21 109.203 302.523 125.986 293.15 138.779C283.903 151.319 270.857 157.589 254.01 157.589ZM281.18 88.4293C281.18 74.2427 278.837 63.4127 274.15 55.9393C269.59 48.466 262.877 44.7293 254.01 44.7293C245.143 44.7293 238.43 48.466 233.87 55.9393C229.31 63.4127 227.03 74.2427 227.03 88.4293C227.03 102.616 229.31 113.446 233.87 120.919C238.43 128.266 245.143 131.939 254.01 131.939C262.877 131.939 269.59 128.203 274.15 120.729C278.837 113.256 281.18 102.489 281.18 88.4293Z" fill="#6DDB5B"/>
<rect x="372.897" y="0.627825" width="138" height="163" rx="9.5" transform="rotate(7 372.897 0.627825)" fill="#1A1F2D" stroke="#6DDB5B"/>
<path d="M468.633 107.999H482.883V132.319H468.633V154.929H442.223V132.319H379.333V107.999L423.603 21.9293H451.723L407.643 107.999H442.223V76.4593H468.633V107.999Z" fill="#6DDB5B"/>
</svg>
