<svg width="100" height="100" viewBox="0 0 100 100" fill="none" xmlns="http://www.w3.org/2000/svg">
<rect width="100" height="100" rx="50" fill="#FFB700"/>
<path fill-rule="evenodd" clip-rule="evenodd" d="M60.9751 30C63.9551 30 66.8218 31.1778 68.9307 33.2911C71.0418 35.4 72.2218 38.2444 72.2218 41.2222V58.7778C72.2218 64.9778 67.1773 70 60.9751 70H39.0218C32.8196 70 27.7773 64.9778 27.7773 58.7778V41.2222C27.7773 35.0222 32.7973 30 39.0218 30H60.9751ZM64.5099 44.5333L64.6877 44.3555C65.2188 43.7111 65.2188 42.7778 64.6633 42.1333C64.3544 41.8022 63.9299 41.6 63.4877 41.5555C63.021 41.5311 62.5766 41.6889 62.241 42L52.221 50C50.9322 51.0689 49.0855 51.0689 47.7766 50L37.7766 42C37.0855 41.4889 36.1299 41.5555 35.5544 42.1555C34.9544 42.7555 34.8877 43.7111 35.3966 44.3778L35.6877 44.6666L45.7988 52.5555C47.0433 53.5333 48.5522 54.0666 50.1322 54.0666C51.7077 54.0666 53.2433 53.5333 54.4855 52.5555L64.5099 44.5333Z" fill="white"/>
</svg>
