<svg width="100" height="100" viewBox="0 0 100 100" fill="none" xmlns="http://www.w3.org/2000/svg">
<rect width="100" height="100" rx="50" fill="#FC6443"/>
<path fill-rule="evenodd" clip-rule="evenodd" d="M33 46.6355C33 37.4358 40.6878 30 49.9869 30C59.3122 30 67 37.4358 67 46.6355C67 51.2714 65.314 55.5753 62.539 59.2232C59.4776 63.247 55.7043 66.7529 51.4571 69.5049C50.485 70.1408 49.6077 70.1888 48.5409 69.5049C44.2695 66.7529 40.4962 63.247 37.461 59.2232C34.684 55.5753 33 51.2714 33 46.6355ZM44.3875 47.1536C44.3875 50.2355 46.9024 52.6595 49.9859 52.6595C53.0715 52.6595 55.6106 50.2355 55.6106 47.1536C55.6106 44.0957 53.0715 41.5538 49.9859 41.5538C46.9024 41.5538 44.3875 44.0957 44.3875 47.1536Z" fill="white"/>
</svg>
