<svg width="100" height="100" viewBox="0 0 100 100" fill="none" xmlns="http://www.w3.org/2000/svg">
<rect width="100" height="100" rx="50" fill="#41CA2B"/>
<path d="M62.3337 54.7584C60.9902 54.4694 59.9275 55.0931 58.9865 55.6379C58.0228 56.1992 56.1903 57.6857 55.1399 57.3053C49.7622 55.0911 44.7043 50.3841 42.5148 44.9847C42.1289 43.912 43.6085 42.0678 44.1657 41.0927C44.7063 40.1489 45.3172 39.0761 45.0386 37.7226C44.7868 36.5063 41.5304 32.3628 40.3789 31.2297C39.6195 30.4812 38.8416 30.0696 38.0429 30.003C35.0404 29.8741 31.687 33.8805 31.0989 34.8389C29.6255 36.8827 29.6337 39.6021 31.1237 42.8995C34.7143 51.7562 48.2949 65.1225 57.185 68.8482C58.8255 69.6154 60.3258 70 61.6733 70C62.9919 70 64.1661 69.632 65.1752 68.9023C65.9367 68.4636 70.1073 64.9437 69.9979 61.8605C69.9319 61.0746 69.5212 60.2887 68.7824 59.5278C67.6578 58.3656 63.5409 55.0121 62.3337 54.7584" fill="white"/>
</svg>
