<svg width="74" height="74" viewBox="0 0 74 74" fill="none" xmlns="http://www.w3.org/2000/svg">
<rect width="74" height="74" rx="37" fill="#FFD467"/>
<path fill-rule="evenodd" clip-rule="evenodd" d="M47.2409 28.7128V31.4728C50.3411 32.4405 52.6 35.247 52.6 38.5991V47.4855C52.6 51.6354 49.1596 55 44.918 55H29.6838C25.4404 55 22 51.6354 22 47.4855V38.5991C22 35.247 24.2607 32.4405 27.3591 31.4728V28.7128C27.3774 23.3466 31.822 19 37.2726 19C42.7963 19 47.2409 23.3466 47.2409 28.7128ZM37.3092 22.1302C41.0222 22.1302 44.0401 25.0816 44.0401 28.7127V31.0845H30.56V28.6769C30.5783 25.0637 33.5963 22.1302 37.3092 22.1302ZM38.9002 45.0185C38.9002 45.895 38.1869 46.5926 37.2907 46.5926C36.4127 46.5926 35.6994 45.895 35.6994 45.0185V41.0475C35.6994 40.1889 36.4127 39.4913 37.2907 39.4913C38.1869 39.4913 38.9002 40.1889 38.9002 41.0475V45.0185Z" fill="#0A0D14"/>
</svg>
