<svg width="74" height="74" viewBox="0 0 74 74" fill="none" xmlns="http://www.w3.org/2000/svg">
<rect width="74" height="74" rx="37" fill="#9AF88A"/>
<path fill-rule="evenodd" clip-rule="evenodd" d="M24.3181 20H30.0641C32.4612 20 34.3822 21.955 34.3822 24.3538V30.1491C34.3822 32.5632 32.4612 34.5012 30.0641 34.5012H24.3181C21.938 34.5012 20 32.5632 20 30.1491V24.3538C20 21.955 21.938 20 24.3181 20ZM24.3181 39.4986H30.0641C32.4612 39.4986 34.3822 41.4383 34.3822 43.8523V49.6477C34.3822 52.0448 32.4612 53.9998 30.0641 53.9998H24.3181C21.938 53.9998 20 52.0448 20 49.6477V43.8523C20 41.4383 21.938 39.4986 24.3181 39.4986ZM49.6825 20H43.9364C41.5394 20 39.6183 21.955 39.6183 24.3538V30.1491C39.6183 32.5632 41.5394 34.5012 43.9364 34.5012H49.6825C52.0625 34.5012 54.0005 32.5632 54.0005 30.1491V24.3538C54.0005 21.955 52.0625 20 49.6825 20ZM43.9364 39.4986H49.6825C52.0625 39.4986 54.0005 41.4383 54.0005 43.8523V49.6477C54.0005 52.0448 52.0625 53.9998 49.6825 53.9998H43.9364C41.5394 53.9998 39.6183 52.0448 39.6183 49.6477V43.8523C39.6183 41.4383 41.5394 39.4986 43.9364 39.4986Z" fill="#0A0D14"/>
</svg>
