<svg width="284" height="44" viewBox="0 0 284 44" fill="none" xmlns="http://www.w3.org/2000/svg">
<path d="M20.6008 0.974551C21.0687 -0.324848 22.9313 -0.324852 23.3992 0.974547L28.4203 14.9181C28.6307 15.5024 29.1911 15.8927 29.8195 15.8927H42.5122C43.9371 15.8927 44.544 17.6806 43.4065 18.5272L32.9149 26.3355C32.431 26.6956 32.2175 27.3097 32.3756 27.8871L36.28 42.1469C36.65 43.4981 35.0725 44.5428 33.9451 43.6932L22.9016 35.3708C22.3693 34.9697 21.6308 34.9697 21.0986 35.371L10.061 43.6929C8.93386 44.5427 7.35622 43.4986 7.72567 42.1474L11.6248 27.8868C11.7826 27.3096 11.5691 26.6957 11.0854 26.3357L0.59354 18.5272C-0.544003 17.6806 0.0628701 15.8927 1.48778 15.8927H14.1805C14.8089 15.8927 15.3693 15.5024 15.5797 14.9181L20.6008 0.974551Z" fill="#FF9D28"/>
<path d="M80.6008 0.974551C81.0687 -0.324848 82.9313 -0.324852 83.3992 0.974547L88.4203 14.9181C88.6307 15.5024 89.1911 15.8927 89.8195 15.8927H102.512C103.937 15.8927 104.544 17.6806 103.406 18.5272L92.9149 26.3355C92.431 26.6956 92.2175 27.3097 92.3756 27.8871L96.28 42.1469C96.65 43.4981 95.0725 44.5428 93.9451 43.6932L82.9016 35.3708C82.3693 34.9697 81.6308 34.9697 81.0986 35.371L70.061 43.6929C68.9339 44.5427 67.3562 43.4986 67.7257 42.1474L71.6248 27.8868C71.7826 27.3096 71.5691 26.6957 71.0854 26.3357L60.5935 18.5272C59.456 17.6806 60.0629 15.8927 61.4878 15.8927H74.1805C74.8089 15.8927 75.3693 15.5024 75.5797 14.9181L80.6008 0.974551Z" fill="#FF9D28"/>
<path d="M140.601 0.974551C141.069 -0.324848 142.931 -0.324852 143.399 0.974547L148.42 14.9181C148.631 15.5024 149.191 15.8927 149.82 15.8927H162.512C163.937 15.8927 164.544 17.6806 163.406 18.5272L152.915 26.3355C152.431 26.6956 152.218 27.3097 152.376 27.8871L156.28 42.1469C156.65 43.4981 155.073 44.5428 153.945 43.6932L142.902 35.3708C142.369 34.9697 141.631 34.9697 141.099 35.371L130.061 43.6929C128.934 44.5427 127.356 43.4986 127.726 42.1474L131.625 27.8868C131.783 27.3096 131.569 26.6957 131.085 26.3357L120.594 18.5272C119.456 17.6806 120.063 15.8927 121.488 15.8927H134.18C134.809 15.8927 135.369 15.5024 135.58 14.9181L140.601 0.974551Z" fill="#FF9D28"/>
<path d="M200.601 0.974551C201.069 -0.324848 202.931 -0.324852 203.399 0.974547L208.42 14.9181C208.631 15.5024 209.191 15.8927 209.82 15.8927H222.512C223.937 15.8927 224.544 17.6806 223.406 18.5272L212.915 26.3355C212.431 26.6956 212.218 27.3097 212.376 27.8871L216.28 42.1469C216.65 43.4981 215.073 44.5428 213.945 43.6932L202.902 35.3708C202.369 34.9697 201.631 34.9697 201.099 35.371L190.061 43.6929C188.934 44.5427 187.356 43.4986 187.726 42.1474L191.625 27.8868C191.783 27.3096 191.569 26.6957 191.085 26.3357L180.594 18.5272C179.456 17.6806 180.063 15.8927 181.488 15.8927H194.18C194.809 15.8927 195.369 15.5024 195.58 14.9181L200.601 0.974551Z" fill="#FF9D28"/>
<path d="M260.601 0.974551C261.069 -0.324848 262.931 -0.324852 263.399 0.974547L268.42 14.9181C268.631 15.5024 269.191 15.8927 269.82 15.8927H282.512C283.937 15.8927 284.544 17.6806 283.406 18.5272L272.915 26.3355C272.431 26.6956 272.218 27.3097 272.376 27.8871L276.28 42.1469C276.65 43.4981 275.073 44.5428 273.945 43.6932L262.902 35.3708C262.369 34.9697 261.631 34.9697 261.099 35.371L250.061 43.6929C248.934 44.5427 247.356 43.4986 247.726 42.1474L251.625 27.8868C251.783 27.3096 251.569 26.6957 251.085 26.3357L240.594 18.5272C239.456 17.6806 240.063 15.8927 241.488 15.8927H254.18C254.809 15.8927 255.369 15.5024 255.58 14.9181L260.601 0.974551Z" fill="#FF9D28"/>
</svg>
